<mxfile host="app.diagrams.net" modified="2022-06-15T14:32:11.650Z" agent="5.0 (Windows NT 10.0; Win64; x64) AppleWebKit/537.36 (KHTML, like Gecko) Chrome/102.0.0.0 Safari/537.36" etag="8IZuLlUr3k-iFfelnN4T" version="20.0.1" type="github">
  <diagram id="wcQSmj_IXfjDRqiQYLkh" name="第 1 页">
    <mxGraphModel dx="2595" dy="1463" grid="1" gridSize="10" guides="1" tooltips="1" connect="1" arrows="1" fold="1" page="1" pageScale="1" pageWidth="2339" pageHeight="3300" math="0" shadow="0">
      <root>
        <mxCell id="0" />
        <mxCell id="1" parent="0" />
        <mxCell id="tV15sADyV607Aclw7fCX-186" value="" style="group" vertex="1" connectable="0" parent="1">
          <mxGeometry x="320" y="2260" width="900" height="470" as="geometry" />
        </mxCell>
        <mxCell id="tV15sADyV607Aclw7fCX-126" value="" style="verticalLabelPosition=bottom;verticalAlign=top;html=1;shape=mxgraph.basic.patternFillRect;fillStyle=hor;step=5;fillStrokeWidth=0.2;fillStrokeColor=#dddddd;shadow=0;sketch=0;fontFamily=Times New Roman;fontSize=27;strokeColor=#000000;strokeWidth=2;fillColor=none;gradientColor=#ffffff;gradientDirection=north;" vertex="1" parent="tV15sADyV607Aclw7fCX-186">
          <mxGeometry y="16.206896551724135" width="900" height="453.7931034482758" as="geometry" />
        </mxCell>
        <mxCell id="tV15sADyV607Aclw7fCX-190" value="" style="verticalLabelPosition=bottom;verticalAlign=top;html=1;shape=mxgraph.basic.patternFillRect;fillStyle=hor;step=5;fillStrokeWidth=0.2;fillStrokeColor=#dddddd;shadow=0;sketch=0;fontFamily=Times New Roman;fontSize=27;strokeColor=#808080;strokeWidth=3;fillColor=none;gradientColor=#ffffff;gradientDirection=north;" vertex="1" parent="tV15sADyV607Aclw7fCX-186">
          <mxGeometry x="22" y="50" width="308" height="370" as="geometry" />
        </mxCell>
        <mxCell id="tV15sADyV607Aclw7fCX-127" value="&lt;h1&gt;&lt;b&gt;&lt;font style=&quot;font-size: 27px;&quot;&gt;B&lt;/font&gt;&lt;/b&gt;&lt;b style=&quot;background-color: initial; font-size: 27px;&quot;&gt;E&lt;/b&gt;&lt;b style=&quot;background-color: initial; font-size: 27px; line-height: 1.1;&quot;&gt;RT&lt;/b&gt;&lt;/h1&gt;" style="text;html=1;resizable=0;autosize=1;align=center;verticalAlign=middle;points=[];fillColor=none;strokeColor=none;rounded=0;shadow=0;sketch=0;fillStyle=auto;fontFamily=Times New Roman;fontSize=27;" vertex="1" parent="tV15sADyV607Aclw7fCX-186">
          <mxGeometry x="755.4737646654182" width="90" height="120" as="geometry" />
        </mxCell>
        <mxCell id="tV15sADyV607Aclw7fCX-192" value="BERT embedding layer" style="text;html=1;resizable=0;autosize=1;align=center;verticalAlign=middle;points=[];fillColor=none;strokeColor=none;rounded=0;shadow=0;sketch=0;fillStyle=auto;fontFamily=Times New Roman;fontSize=27;" vertex="1" parent="tV15sADyV607Aclw7fCX-186">
          <mxGeometry x="40.00145985401459" y="60" width="270" height="40" as="geometry" />
        </mxCell>
        <mxCell id="tV15sADyV607Aclw7fCX-176" value="" style="verticalLabelPosition=bottom;verticalAlign=top;html=1;shape=mxgraph.basic.patternFillRect;fillStyle=auto;step=5;fillStrokeWidth=0.2;fillStrokeColor=#dddddd;gradientDirection=north;strokeColor=#d6b656;shadow=0;sketch=0;fillColor=#fff2cc;" vertex="1" parent="tV15sADyV607Aclw7fCX-186">
          <mxGeometry x="40" y="123.1" width="30" height="30" as="geometry" />
        </mxCell>
        <mxCell id="tV15sADyV607Aclw7fCX-178" value="" style="verticalLabelPosition=bottom;verticalAlign=top;html=1;shape=mxgraph.basic.patternFillRect;fillStyle=auto;step=5;fillStrokeWidth=0.2;fillStrokeColor=#dddddd;gradientDirection=north;strokeColor=#d6b656;shadow=0;sketch=0;fillColor=#fff2cc;" vertex="1" parent="tV15sADyV607Aclw7fCX-186">
          <mxGeometry x="40" y="153.1" width="30" height="30" as="geometry" />
        </mxCell>
        <mxCell id="tV15sADyV607Aclw7fCX-179" value="" style="verticalLabelPosition=bottom;verticalAlign=top;html=1;shape=mxgraph.basic.patternFillRect;fillStyle=auto;step=5;fillStrokeWidth=0.2;fillStrokeColor=#dddddd;gradientDirection=north;strokeColor=#d6b656;shadow=0;sketch=0;fillColor=#fff2cc;" vertex="1" parent="tV15sADyV607Aclw7fCX-186">
          <mxGeometry x="40" y="183.1" width="30" height="30" as="geometry" />
        </mxCell>
        <mxCell id="tV15sADyV607Aclw7fCX-180" value="" style="verticalLabelPosition=bottom;verticalAlign=top;html=1;shape=mxgraph.basic.patternFillRect;fillStyle=auto;step=5;fillStrokeWidth=0.2;fillStrokeColor=#dddddd;gradientDirection=north;strokeColor=#d6b656;shadow=0;sketch=0;fillColor=#fff2cc;" vertex="1" parent="tV15sADyV607Aclw7fCX-186">
          <mxGeometry x="40" y="213.1" width="30" height="30" as="geometry" />
        </mxCell>
        <mxCell id="tV15sADyV607Aclw7fCX-181" value="" style="verticalLabelPosition=bottom;verticalAlign=top;html=1;shape=mxgraph.basic.patternFillRect;fillStyle=auto;step=5;fillStrokeWidth=0.2;fillStrokeColor=#dddddd;gradientDirection=north;strokeColor=#d6b656;shadow=0;sketch=0;fillColor=#fff2cc;" vertex="1" parent="tV15sADyV607Aclw7fCX-186">
          <mxGeometry x="40" y="243.1" width="30" height="30" as="geometry" />
        </mxCell>
        <mxCell id="tV15sADyV607Aclw7fCX-182" value="" style="verticalLabelPosition=bottom;verticalAlign=top;html=1;shape=mxgraph.basic.patternFillRect;fillStyle=auto;step=5;fillStrokeWidth=0.2;fillStrokeColor=#dddddd;gradientDirection=north;strokeColor=#d6b656;shadow=0;sketch=0;fillColor=#fff2cc;" vertex="1" parent="tV15sADyV607Aclw7fCX-186">
          <mxGeometry x="40" y="273.1" width="30" height="30" as="geometry" />
        </mxCell>
        <mxCell id="tV15sADyV607Aclw7fCX-183" value="" style="verticalLabelPosition=bottom;verticalAlign=top;html=1;shape=mxgraph.basic.patternFillRect;fillStyle=auto;step=5;fillStrokeWidth=0.2;fillStrokeColor=#dddddd;gradientDirection=north;strokeColor=#d6b656;shadow=0;sketch=0;fillColor=#fff2cc;" vertex="1" parent="tV15sADyV607Aclw7fCX-186">
          <mxGeometry x="40" y="303.1" width="30" height="30" as="geometry" />
        </mxCell>
        <mxCell id="tV15sADyV607Aclw7fCX-184" value="" style="verticalLabelPosition=bottom;verticalAlign=top;html=1;shape=mxgraph.basic.patternFillRect;fillStyle=auto;step=5;fillStrokeWidth=0.2;fillStrokeColor=#dddddd;gradientDirection=north;strokeColor=#d6b656;shadow=0;sketch=0;fillColor=#fff2cc;" vertex="1" parent="tV15sADyV607Aclw7fCX-186">
          <mxGeometry x="40" y="333.1" width="30" height="30" as="geometry" />
        </mxCell>
        <mxCell id="tV15sADyV607Aclw7fCX-193" value="&lt;b&gt;+&lt;/b&gt;" style="text;html=1;resizable=0;autosize=1;align=center;verticalAlign=middle;points=[];fillColor=none;strokeColor=none;rounded=0;shadow=0;sketch=0;fillStyle=auto;fontFamily=Times New Roman;fontSize=27;" vertex="1" parent="tV15sADyV607Aclw7fCX-186">
          <mxGeometry x="110.00145985401457" y="203.0999999999999" width="30" height="40" as="geometry" />
        </mxCell>
        <mxCell id="tV15sADyV607Aclw7fCX-194" value="" style="verticalLabelPosition=bottom;verticalAlign=top;html=1;shape=mxgraph.basic.patternFillRect;fillStyle=auto;step=5;fillStrokeWidth=0.2;fillStrokeColor=#dddddd;gradientDirection=north;shadow=0;sketch=0;" vertex="1" parent="tV15sADyV607Aclw7fCX-186">
          <mxGeometry x="170" y="123.09999999999991" width="30" height="30" as="geometry" />
        </mxCell>
        <mxCell id="tV15sADyV607Aclw7fCX-195" value="" style="verticalLabelPosition=bottom;verticalAlign=top;html=1;shape=mxgraph.basic.patternFillRect;fillStyle=auto;step=5;fillStrokeWidth=0.2;fillStrokeColor=#dddddd;gradientDirection=north;shadow=0;sketch=0;" vertex="1" parent="tV15sADyV607Aclw7fCX-186">
          <mxGeometry x="170" y="153.0999999999999" width="30" height="30" as="geometry" />
        </mxCell>
        <mxCell id="tV15sADyV607Aclw7fCX-196" value="" style="verticalLabelPosition=bottom;verticalAlign=top;html=1;shape=mxgraph.basic.patternFillRect;fillStyle=auto;step=5;fillStrokeWidth=0.2;fillStrokeColor=#dddddd;gradientDirection=north;shadow=0;sketch=0;" vertex="1" parent="tV15sADyV607Aclw7fCX-186">
          <mxGeometry x="170" y="183.0999999999999" width="30" height="30" as="geometry" />
        </mxCell>
        <mxCell id="tV15sADyV607Aclw7fCX-197" value="" style="verticalLabelPosition=bottom;verticalAlign=top;html=1;shape=mxgraph.basic.patternFillRect;fillStyle=auto;step=5;fillStrokeWidth=0.2;fillStrokeColor=#dddddd;gradientDirection=north;shadow=0;sketch=0;" vertex="1" parent="tV15sADyV607Aclw7fCX-186">
          <mxGeometry x="170" y="213.0999999999999" width="30" height="30" as="geometry" />
        </mxCell>
        <mxCell id="tV15sADyV607Aclw7fCX-198" value="" style="verticalLabelPosition=bottom;verticalAlign=top;html=1;shape=mxgraph.basic.patternFillRect;fillStyle=auto;step=5;fillStrokeWidth=0.2;fillStrokeColor=#dddddd;gradientDirection=north;shadow=0;sketch=0;" vertex="1" parent="tV15sADyV607Aclw7fCX-186">
          <mxGeometry x="170" y="243.0999999999999" width="30" height="30" as="geometry" />
        </mxCell>
        <mxCell id="tV15sADyV607Aclw7fCX-199" value="" style="verticalLabelPosition=bottom;verticalAlign=top;html=1;shape=mxgraph.basic.patternFillRect;fillStyle=auto;step=5;fillStrokeWidth=0.2;fillStrokeColor=#dddddd;gradientDirection=north;shadow=0;sketch=0;" vertex="1" parent="tV15sADyV607Aclw7fCX-186">
          <mxGeometry x="170" y="273.0999999999999" width="30" height="30" as="geometry" />
        </mxCell>
        <mxCell id="tV15sADyV607Aclw7fCX-200" value="" style="verticalLabelPosition=bottom;verticalAlign=top;html=1;shape=mxgraph.basic.patternFillRect;fillStyle=auto;step=5;fillStrokeWidth=0.2;fillStrokeColor=#dddddd;gradientDirection=north;shadow=0;sketch=0;" vertex="1" parent="tV15sADyV607Aclw7fCX-186">
          <mxGeometry x="170" y="303.0999999999999" width="30" height="30" as="geometry" />
        </mxCell>
        <mxCell id="tV15sADyV607Aclw7fCX-201" value="" style="verticalLabelPosition=bottom;verticalAlign=top;html=1;shape=mxgraph.basic.patternFillRect;fillStyle=auto;step=5;fillStrokeWidth=0.2;fillStrokeColor=#dddddd;gradientDirection=north;shadow=0;sketch=0;" vertex="1" parent="tV15sADyV607Aclw7fCX-186">
          <mxGeometry x="170" y="333.0999999999999" width="30" height="30" as="geometry" />
        </mxCell>
        <mxCell id="tV15sADyV607Aclw7fCX-174" value="" style="verticalLabelPosition=bottom;verticalAlign=top;html=1;shape=mxgraph.basic.rect;fillColor2=none;strokeWidth=3;size=20;indent=5;shadow=0;sketch=0;fillStyle=auto;fontFamily=Times New Roman;fontSize=27;fillColor=none;gradientDirection=north;dashed=1;fontColor=#333333;strokeColor=#808080;" vertex="1" parent="1">
          <mxGeometry x="321" y="2785" width="890" height="425" as="geometry" />
        </mxCell>
        <mxCell id="tV15sADyV607Aclw7fCX-133" value="" style="verticalLabelPosition=bottom;verticalAlign=top;html=1;shape=mxgraph.basic.rect;fillColor2=none;strokeWidth=1;size=20;indent=5;shadow=0;sketch=0;fillStyle=auto;fontFamily=Times New Roman;fontSize=27;gradientDirection=north;fillColor=none;" vertex="1" parent="1">
          <mxGeometry x="350" y="3000" width="840" height="92" as="geometry" />
        </mxCell>
        <mxCell id="tV15sADyV607Aclw7fCX-82" value="" style="group" vertex="1" connectable="0" parent="1">
          <mxGeometry x="650" y="3130" width="240" height="30" as="geometry" />
        </mxCell>
        <mxCell id="tV15sADyV607Aclw7fCX-74" value="" style="verticalLabelPosition=bottom;verticalAlign=top;html=1;shape=mxgraph.basic.patternFillRect;fillStyle=auto;step=5;fillStrokeWidth=0.2;fillStrokeColor=#dddddd;gradientDirection=north;strokeColor=#36393d;shadow=0;sketch=0;fillColor=#eeeeee;" vertex="1" parent="tV15sADyV607Aclw7fCX-82">
          <mxGeometry width="30" height="30" as="geometry" />
        </mxCell>
        <mxCell id="tV15sADyV607Aclw7fCX-75" value="" style="verticalLabelPosition=bottom;verticalAlign=top;html=1;shape=mxgraph.basic.patternFillRect;fillStyle=auto;step=5;fillStrokeWidth=0.2;fillStrokeColor=#dddddd;gradientDirection=north;strokeColor=#36393d;shadow=0;sketch=0;fillColor=#eeeeee;" vertex="1" parent="tV15sADyV607Aclw7fCX-82">
          <mxGeometry x="120" width="30" height="30" as="geometry" />
        </mxCell>
        <mxCell id="tV15sADyV607Aclw7fCX-76" value="" style="verticalLabelPosition=bottom;verticalAlign=top;html=1;shape=mxgraph.basic.patternFillRect;fillStyle=auto;step=5;fillStrokeWidth=0.2;fillStrokeColor=#dddddd;gradientDirection=north;strokeColor=#36393d;shadow=0;sketch=0;fillColor=#eeeeee;" vertex="1" parent="tV15sADyV607Aclw7fCX-82">
          <mxGeometry x="30" width="30" height="30" as="geometry" />
        </mxCell>
        <mxCell id="tV15sADyV607Aclw7fCX-77" value="" style="verticalLabelPosition=bottom;verticalAlign=top;html=1;shape=mxgraph.basic.patternFillRect;fillStyle=auto;step=5;fillStrokeWidth=0.2;fillStrokeColor=#dddddd;gradientDirection=north;strokeColor=#36393d;shadow=0;sketch=0;fillColor=#eeeeee;" vertex="1" parent="tV15sADyV607Aclw7fCX-82">
          <mxGeometry x="150" width="30" height="30" as="geometry" />
        </mxCell>
        <mxCell id="tV15sADyV607Aclw7fCX-78" value="" style="verticalLabelPosition=bottom;verticalAlign=top;html=1;shape=mxgraph.basic.patternFillRect;fillStyle=auto;step=5;fillStrokeWidth=0.2;fillStrokeColor=#dddddd;gradientDirection=north;strokeColor=#36393d;shadow=0;sketch=0;fillColor=#eeeeee;" vertex="1" parent="tV15sADyV607Aclw7fCX-82">
          <mxGeometry x="60" width="30" height="30" as="geometry" />
        </mxCell>
        <mxCell id="tV15sADyV607Aclw7fCX-79" value="" style="verticalLabelPosition=bottom;verticalAlign=top;html=1;shape=mxgraph.basic.patternFillRect;fillStyle=auto;step=5;fillStrokeWidth=0.2;fillStrokeColor=#dddddd;gradientDirection=north;strokeColor=#36393d;shadow=0;sketch=0;fillColor=#eeeeee;" vertex="1" parent="tV15sADyV607Aclw7fCX-82">
          <mxGeometry x="180" width="30" height="30" as="geometry" />
        </mxCell>
        <mxCell id="tV15sADyV607Aclw7fCX-80" value="" style="verticalLabelPosition=bottom;verticalAlign=top;html=1;shape=mxgraph.basic.patternFillRect;fillStyle=auto;step=5;fillStrokeWidth=0.2;fillStrokeColor=#dddddd;gradientDirection=north;strokeColor=#36393d;shadow=0;sketch=0;fillColor=#eeeeee;" vertex="1" parent="tV15sADyV607Aclw7fCX-82">
          <mxGeometry x="90" width="30" height="30" as="geometry" />
        </mxCell>
        <mxCell id="tV15sADyV607Aclw7fCX-81" value="" style="verticalLabelPosition=bottom;verticalAlign=top;html=1;shape=mxgraph.basic.patternFillRect;fillStyle=auto;step=5;fillStrokeWidth=0.2;fillStrokeColor=#dddddd;gradientDirection=north;strokeColor=#36393d;shadow=0;sketch=0;fillColor=#eeeeee;" vertex="1" parent="tV15sADyV607Aclw7fCX-82">
          <mxGeometry x="210" width="30" height="30" as="geometry" />
        </mxCell>
        <mxCell id="tV15sADyV607Aclw7fCX-83" value="" style="group" vertex="1" connectable="0" parent="1">
          <mxGeometry x="580" y="2880" width="400" height="60" as="geometry" />
        </mxCell>
        <mxCell id="tV15sADyV607Aclw7fCX-43" value="" style="verticalLabelPosition=bottom;verticalAlign=top;html=1;shape=mxgraph.basic.patternFillRect;fillStyle=hor;step=5;fillStrokeWidth=0.2;fillStrokeColor=#dddddd;shadow=0;sketch=0;strokeColor=#000000;gradientColor=#ffffff;gradientDirection=north;fillColor=none;strokeWidth=2;" vertex="1" parent="tV15sADyV607Aclw7fCX-83">
          <mxGeometry width="400" height="60" as="geometry" />
        </mxCell>
        <mxCell id="tV15sADyV607Aclw7fCX-46" value="&lt;p&gt;&lt;b style=&quot;font-family: &amp;quot;Times New Roman&amp;quot;; font-size: 27px;&quot;&gt;Fusion layer&lt;/b&gt;&lt;br&gt;&lt;/p&gt;" style="text;html=1;resizable=0;autosize=1;align=center;verticalAlign=middle;points=[];fillColor=none;strokeColor=none;rounded=0;shadow=0;dashed=1;sketch=0;fillStyle=auto;" vertex="1" parent="tV15sADyV607Aclw7fCX-83">
          <mxGeometry x="123.8095238095238" y="4" width="160" height="50" as="geometry" />
        </mxCell>
        <mxCell id="tV15sADyV607Aclw7fCX-84" value="" style="group;fillColor=#dae8fc;strokeColor=#6c8ebf;gradientColor=#7ea6e0;container=0;" vertex="1" connectable="0" parent="1">
          <mxGeometry x="370" y="3050" width="240" height="30" as="geometry" />
        </mxCell>
        <mxCell id="tV15sADyV607Aclw7fCX-93" value="" style="group;fillColor=#d5e8d4;gradientColor=#97d077;strokeColor=#82b366;container=0;" vertex="1" connectable="0" parent="1">
          <mxGeometry x="650" y="3050" width="240" height="30" as="geometry" />
        </mxCell>
        <mxCell id="tV15sADyV607Aclw7fCX-102" value="" style="group;fillColor=#e6d0de;gradientColor=#d5739d;strokeColor=#996185;container=0;" vertex="1" connectable="0" parent="1">
          <mxGeometry x="930" y="3050" width="240" height="30" as="geometry" />
        </mxCell>
        <mxCell id="tV15sADyV607Aclw7fCX-112" value="Input" style="text;html=1;resizable=0;autosize=1;align=center;verticalAlign=middle;points=[];fillColor=none;strokeColor=none;rounded=0;shadow=0;sketch=0;fillStyle=auto;fontFamily=Times New Roman;fontSize=27;" vertex="1" parent="1">
          <mxGeometry x="735" y="3160" width="70" height="40" as="geometry" />
        </mxCell>
        <mxCell id="tV15sADyV607Aclw7fCX-114" value="" style="verticalLabelPosition=bottom;verticalAlign=top;html=1;shape=mxgraph.flowchart.summing_function;shadow=0;sketch=0;fillStyle=auto;fontFamily=Times New Roman;fontSize=27;strokeColor=#000000;strokeWidth=2;fillColor=none;gradientColor=#ffffff;gradientDirection=north;aspect=fixed;" vertex="1" parent="1">
          <mxGeometry x="618" y="3054" width="25" height="25" as="geometry" />
        </mxCell>
        <mxCell id="tV15sADyV607Aclw7fCX-115" value="" style="verticalLabelPosition=bottom;verticalAlign=top;html=1;shape=mxgraph.flowchart.summing_function;shadow=0;sketch=0;fillStyle=auto;fontFamily=Times New Roman;fontSize=27;strokeColor=#000000;strokeWidth=2;fillColor=none;gradientColor=#ffffff;gradientDirection=north;aspect=fixed;" vertex="1" parent="1">
          <mxGeometry x="898" y="3052.5" width="25" height="25" as="geometry" />
        </mxCell>
        <mxCell id="tV15sADyV607Aclw7fCX-116" value="" style="group;fillColor=#fff2cc;strokeColor=#d6b656;" vertex="1" connectable="0" parent="1">
          <mxGeometry x="650" y="2800" width="240" height="30" as="geometry" />
        </mxCell>
        <mxCell id="tV15sADyV607Aclw7fCX-117" value="" style="verticalLabelPosition=bottom;verticalAlign=top;html=1;shape=mxgraph.basic.patternFillRect;fillStyle=auto;step=5;fillStrokeWidth=0.2;fillStrokeColor=#dddddd;gradientDirection=north;strokeColor=#d6b656;shadow=0;sketch=0;fillColor=#fff2cc;" vertex="1" parent="tV15sADyV607Aclw7fCX-116">
          <mxGeometry width="30" height="30" as="geometry" />
        </mxCell>
        <mxCell id="tV15sADyV607Aclw7fCX-118" value="" style="verticalLabelPosition=bottom;verticalAlign=top;html=1;shape=mxgraph.basic.patternFillRect;fillStyle=auto;step=5;fillStrokeWidth=0.2;fillStrokeColor=#dddddd;gradientDirection=north;strokeColor=#d6b656;shadow=0;sketch=0;fillColor=#fff2cc;" vertex="1" parent="tV15sADyV607Aclw7fCX-116">
          <mxGeometry x="120" width="30" height="30" as="geometry" />
        </mxCell>
        <mxCell id="tV15sADyV607Aclw7fCX-119" value="" style="verticalLabelPosition=bottom;verticalAlign=top;html=1;shape=mxgraph.basic.patternFillRect;fillStyle=auto;step=5;fillStrokeWidth=0.2;fillStrokeColor=#dddddd;gradientDirection=north;strokeColor=#d6b656;shadow=0;sketch=0;fillColor=#fff2cc;" vertex="1" parent="tV15sADyV607Aclw7fCX-116">
          <mxGeometry x="30" width="30" height="30" as="geometry" />
        </mxCell>
        <mxCell id="tV15sADyV607Aclw7fCX-120" value="" style="verticalLabelPosition=bottom;verticalAlign=top;html=1;shape=mxgraph.basic.patternFillRect;fillStyle=auto;step=5;fillStrokeWidth=0.2;fillStrokeColor=#dddddd;gradientDirection=north;strokeColor=#d6b656;shadow=0;sketch=0;fillColor=#fff2cc;" vertex="1" parent="tV15sADyV607Aclw7fCX-116">
          <mxGeometry x="150" width="30" height="30" as="geometry" />
        </mxCell>
        <mxCell id="tV15sADyV607Aclw7fCX-121" value="" style="verticalLabelPosition=bottom;verticalAlign=top;html=1;shape=mxgraph.basic.patternFillRect;fillStyle=auto;step=5;fillStrokeWidth=0.2;fillStrokeColor=#dddddd;gradientDirection=north;strokeColor=#d6b656;shadow=0;sketch=0;fillColor=#fff2cc;" vertex="1" parent="tV15sADyV607Aclw7fCX-116">
          <mxGeometry x="60" width="30" height="30" as="geometry" />
        </mxCell>
        <mxCell id="tV15sADyV607Aclw7fCX-122" value="" style="verticalLabelPosition=bottom;verticalAlign=top;html=1;shape=mxgraph.basic.patternFillRect;fillStyle=auto;step=5;fillStrokeWidth=0.2;fillStrokeColor=#dddddd;gradientDirection=north;strokeColor=#d6b656;shadow=0;sketch=0;fillColor=#fff2cc;" vertex="1" parent="tV15sADyV607Aclw7fCX-116">
          <mxGeometry x="180" width="30" height="30" as="geometry" />
        </mxCell>
        <mxCell id="tV15sADyV607Aclw7fCX-123" value="" style="verticalLabelPosition=bottom;verticalAlign=top;html=1;shape=mxgraph.basic.patternFillRect;fillStyle=auto;step=5;fillStrokeWidth=0.2;fillStrokeColor=#dddddd;gradientDirection=north;strokeColor=#d6b656;shadow=0;sketch=0;fillColor=#fff2cc;" vertex="1" parent="tV15sADyV607Aclw7fCX-116">
          <mxGeometry x="90" width="30" height="30" as="geometry" />
        </mxCell>
        <mxCell id="tV15sADyV607Aclw7fCX-124" value="" style="verticalLabelPosition=bottom;verticalAlign=top;html=1;shape=mxgraph.basic.patternFillRect;fillStyle=auto;step=5;fillStrokeWidth=0.2;fillStrokeColor=#dddddd;gradientDirection=north;strokeColor=#d6b656;shadow=0;sketch=0;fillColor=#fff2cc;" vertex="1" parent="tV15sADyV607Aclw7fCX-116">
          <mxGeometry x="210" width="30" height="30" as="geometry" />
        </mxCell>
        <mxCell id="tV15sADyV607Aclw7fCX-85" value="" style="verticalLabelPosition=bottom;verticalAlign=top;html=1;shape=mxgraph.basic.patternFillRect;fillStyle=auto;step=5;fillStrokeWidth=0.2;fillStrokeColor=#dddddd;gradientDirection=north;strokeColor=#6c8ebf;shadow=0;sketch=0;fillColor=#dae8fc;gradientColor=#7ea6e0;" vertex="1" parent="1">
          <mxGeometry x="370" y="3050" width="30" height="30" as="geometry" />
        </mxCell>
        <mxCell id="tV15sADyV607Aclw7fCX-86" value="" style="verticalLabelPosition=bottom;verticalAlign=top;html=1;shape=mxgraph.basic.patternFillRect;fillStyle=auto;step=5;fillStrokeWidth=0.2;fillStrokeColor=#dddddd;gradientDirection=north;strokeColor=#6c8ebf;shadow=0;sketch=0;fillColor=#dae8fc;gradientColor=#7ea6e0;" vertex="1" parent="1">
          <mxGeometry x="490" y="3050" width="30" height="30" as="geometry" />
        </mxCell>
        <mxCell id="tV15sADyV607Aclw7fCX-87" value="" style="verticalLabelPosition=bottom;verticalAlign=top;html=1;shape=mxgraph.basic.patternFillRect;fillStyle=auto;step=5;fillStrokeWidth=0.2;fillStrokeColor=#dddddd;gradientDirection=north;strokeColor=#6c8ebf;shadow=0;sketch=0;fillColor=#dae8fc;gradientColor=#7ea6e0;" vertex="1" parent="1">
          <mxGeometry x="400" y="3050" width="30" height="30" as="geometry" />
        </mxCell>
        <mxCell id="tV15sADyV607Aclw7fCX-88" value="" style="verticalLabelPosition=bottom;verticalAlign=top;html=1;shape=mxgraph.basic.patternFillRect;fillStyle=auto;step=5;fillStrokeWidth=0.2;fillStrokeColor=#dddddd;gradientDirection=north;strokeColor=#6c8ebf;shadow=0;sketch=0;fillColor=#dae8fc;gradientColor=#7ea6e0;" vertex="1" parent="1">
          <mxGeometry x="520" y="3050" width="30" height="30" as="geometry" />
        </mxCell>
        <mxCell id="tV15sADyV607Aclw7fCX-89" value="" style="verticalLabelPosition=bottom;verticalAlign=top;html=1;shape=mxgraph.basic.patternFillRect;fillStyle=auto;step=5;fillStrokeWidth=0.2;fillStrokeColor=#dddddd;gradientDirection=north;strokeColor=#6c8ebf;shadow=0;sketch=0;fillColor=#dae8fc;gradientColor=#7ea6e0;" vertex="1" parent="1">
          <mxGeometry x="430" y="3050" width="30" height="30" as="geometry" />
        </mxCell>
        <mxCell id="tV15sADyV607Aclw7fCX-90" value="" style="verticalLabelPosition=bottom;verticalAlign=top;html=1;shape=mxgraph.basic.patternFillRect;fillStyle=auto;step=5;fillStrokeWidth=0.2;fillStrokeColor=#dddddd;gradientDirection=north;strokeColor=#6c8ebf;shadow=0;sketch=0;fillColor=#dae8fc;gradientColor=#7ea6e0;" vertex="1" parent="1">
          <mxGeometry x="550" y="3050" width="30" height="30" as="geometry" />
        </mxCell>
        <mxCell id="tV15sADyV607Aclw7fCX-91" value="" style="verticalLabelPosition=bottom;verticalAlign=top;html=1;shape=mxgraph.basic.patternFillRect;fillStyle=auto;step=5;fillStrokeWidth=0.2;fillStrokeColor=#dddddd;gradientDirection=north;strokeColor=#6c8ebf;shadow=0;sketch=0;fillColor=#dae8fc;gradientColor=#7ea6e0;" vertex="1" parent="1">
          <mxGeometry x="460" y="3050" width="30" height="30" as="geometry" />
        </mxCell>
        <mxCell id="tV15sADyV607Aclw7fCX-92" value="" style="verticalLabelPosition=bottom;verticalAlign=top;html=1;shape=mxgraph.basic.patternFillRect;fillStyle=auto;step=5;fillStrokeWidth=0.2;fillStrokeColor=#dddddd;gradientDirection=north;strokeColor=#6c8ebf;shadow=0;sketch=0;fillColor=#dae8fc;gradientColor=#7ea6e0;" vertex="1" parent="1">
          <mxGeometry x="580" y="3050" width="30" height="30" as="geometry" />
        </mxCell>
        <mxCell id="tV15sADyV607Aclw7fCX-94" value="" style="verticalLabelPosition=bottom;verticalAlign=top;html=1;shape=mxgraph.basic.patternFillRect;fillStyle=auto;step=5;fillStrokeWidth=0.2;fillStrokeColor=#dddddd;gradientDirection=north;strokeColor=#82b366;shadow=0;sketch=0;fillColor=#d5e8d4;gradientColor=#97d077;" vertex="1" parent="1">
          <mxGeometry x="650" y="3050" width="30" height="30" as="geometry" />
        </mxCell>
        <mxCell id="tV15sADyV607Aclw7fCX-95" value="" style="verticalLabelPosition=bottom;verticalAlign=top;html=1;shape=mxgraph.basic.patternFillRect;fillStyle=auto;step=5;fillStrokeWidth=0.2;fillStrokeColor=#dddddd;gradientDirection=north;strokeColor=#82b366;shadow=0;sketch=0;fillColor=#d5e8d4;gradientColor=#97d077;" vertex="1" parent="1">
          <mxGeometry x="770" y="3050" width="30" height="30" as="geometry" />
        </mxCell>
        <mxCell id="tV15sADyV607Aclw7fCX-96" value="" style="verticalLabelPosition=bottom;verticalAlign=top;html=1;shape=mxgraph.basic.patternFillRect;fillStyle=auto;step=5;fillStrokeWidth=0.2;fillStrokeColor=#dddddd;gradientDirection=north;strokeColor=#82b366;shadow=0;sketch=0;fillColor=#d5e8d4;gradientColor=#97d077;" vertex="1" parent="1">
          <mxGeometry x="680" y="3050" width="30" height="30" as="geometry" />
        </mxCell>
        <mxCell id="tV15sADyV607Aclw7fCX-97" value="" style="verticalLabelPosition=bottom;verticalAlign=top;html=1;shape=mxgraph.basic.patternFillRect;fillStyle=auto;step=5;fillStrokeWidth=0.2;fillStrokeColor=#dddddd;gradientDirection=north;strokeColor=#82b366;shadow=0;sketch=0;fillColor=#d5e8d4;gradientColor=#97d077;" vertex="1" parent="1">
          <mxGeometry x="800" y="3050" width="30" height="30" as="geometry" />
        </mxCell>
        <mxCell id="tV15sADyV607Aclw7fCX-98" value="" style="verticalLabelPosition=bottom;verticalAlign=top;html=1;shape=mxgraph.basic.patternFillRect;fillStyle=auto;step=5;fillStrokeWidth=0.2;fillStrokeColor=#dddddd;gradientDirection=north;strokeColor=#82b366;shadow=0;sketch=0;fillColor=#d5e8d4;gradientColor=#97d077;" vertex="1" parent="1">
          <mxGeometry x="710" y="3050" width="30" height="30" as="geometry" />
        </mxCell>
        <mxCell id="tV15sADyV607Aclw7fCX-99" value="" style="verticalLabelPosition=bottom;verticalAlign=top;html=1;shape=mxgraph.basic.patternFillRect;fillStyle=auto;step=5;fillStrokeWidth=0.2;fillStrokeColor=#dddddd;gradientDirection=north;strokeColor=#82b366;shadow=0;sketch=0;fillColor=#d5e8d4;gradientColor=#97d077;" vertex="1" parent="1">
          <mxGeometry x="830" y="3050" width="30" height="30" as="geometry" />
        </mxCell>
        <mxCell id="tV15sADyV607Aclw7fCX-100" value="" style="verticalLabelPosition=bottom;verticalAlign=top;html=1;shape=mxgraph.basic.patternFillRect;fillStyle=auto;step=5;fillStrokeWidth=0.2;fillStrokeColor=#dddddd;gradientDirection=north;strokeColor=#82b366;shadow=0;sketch=0;fillColor=#d5e8d4;gradientColor=#97d077;" vertex="1" parent="1">
          <mxGeometry x="740" y="3050" width="30" height="30" as="geometry" />
        </mxCell>
        <mxCell id="tV15sADyV607Aclw7fCX-101" value="" style="verticalLabelPosition=bottom;verticalAlign=top;html=1;shape=mxgraph.basic.patternFillRect;fillStyle=auto;step=5;fillStrokeWidth=0.2;fillStrokeColor=#dddddd;gradientDirection=north;strokeColor=#82b366;shadow=0;sketch=0;fillColor=#d5e8d4;gradientColor=#97d077;" vertex="1" parent="1">
          <mxGeometry x="860" y="3050" width="30" height="30" as="geometry" />
        </mxCell>
        <mxCell id="tV15sADyV607Aclw7fCX-103" value="" style="verticalLabelPosition=bottom;verticalAlign=top;html=1;shape=mxgraph.basic.patternFillRect;fillStyle=auto;step=5;fillStrokeWidth=0.2;fillStrokeColor=#dddddd;gradientDirection=north;strokeColor=#996185;shadow=0;sketch=0;fillColor=#e6d0de;gradientColor=#d5739d;" vertex="1" parent="1">
          <mxGeometry x="930" y="3050" width="30" height="30" as="geometry" />
        </mxCell>
        <mxCell id="tV15sADyV607Aclw7fCX-104" value="" style="verticalLabelPosition=bottom;verticalAlign=top;html=1;shape=mxgraph.basic.patternFillRect;fillStyle=auto;step=5;fillStrokeWidth=0.2;fillStrokeColor=#dddddd;gradientDirection=north;strokeColor=#996185;shadow=0;sketch=0;fillColor=#e6d0de;gradientColor=#d5739d;" vertex="1" parent="1">
          <mxGeometry x="1050" y="3050" width="30" height="30" as="geometry" />
        </mxCell>
        <mxCell id="tV15sADyV607Aclw7fCX-105" value="" style="verticalLabelPosition=bottom;verticalAlign=top;html=1;shape=mxgraph.basic.patternFillRect;fillStyle=auto;step=5;fillStrokeWidth=0.2;fillStrokeColor=#dddddd;gradientDirection=north;strokeColor=#996185;shadow=0;sketch=0;fillColor=#e6d0de;gradientColor=#d5739d;" vertex="1" parent="1">
          <mxGeometry x="960" y="3050" width="30" height="30" as="geometry" />
        </mxCell>
        <mxCell id="tV15sADyV607Aclw7fCX-106" value="" style="verticalLabelPosition=bottom;verticalAlign=top;html=1;shape=mxgraph.basic.patternFillRect;fillStyle=auto;step=5;fillStrokeWidth=0.2;fillStrokeColor=#dddddd;gradientDirection=north;strokeColor=#996185;shadow=0;sketch=0;fillColor=#e6d0de;gradientColor=#d5739d;" vertex="1" parent="1">
          <mxGeometry x="1080" y="3050" width="30" height="30" as="geometry" />
        </mxCell>
        <mxCell id="tV15sADyV607Aclw7fCX-107" value="" style="verticalLabelPosition=bottom;verticalAlign=top;html=1;shape=mxgraph.basic.patternFillRect;fillStyle=auto;step=5;fillStrokeWidth=0.2;fillStrokeColor=#dddddd;gradientDirection=north;strokeColor=#996185;shadow=0;sketch=0;fillColor=#e6d0de;gradientColor=#d5739d;" vertex="1" parent="1">
          <mxGeometry x="990" y="3050" width="30" height="30" as="geometry" />
        </mxCell>
        <mxCell id="tV15sADyV607Aclw7fCX-108" value="" style="verticalLabelPosition=bottom;verticalAlign=top;html=1;shape=mxgraph.basic.patternFillRect;fillStyle=auto;step=5;fillStrokeWidth=0.2;fillStrokeColor=#dddddd;gradientDirection=north;strokeColor=#996185;shadow=0;sketch=0;fillColor=#e6d0de;gradientColor=#d5739d;" vertex="1" parent="1">
          <mxGeometry x="1110" y="3050" width="30" height="30" as="geometry" />
        </mxCell>
        <mxCell id="tV15sADyV607Aclw7fCX-109" value="" style="verticalLabelPosition=bottom;verticalAlign=top;html=1;shape=mxgraph.basic.patternFillRect;fillStyle=auto;step=5;fillStrokeWidth=0.2;fillStrokeColor=#dddddd;gradientDirection=north;strokeColor=#996185;shadow=0;sketch=0;fillColor=#e6d0de;gradientColor=#d5739d;" vertex="1" parent="1">
          <mxGeometry x="1020" y="3050" width="30" height="30" as="geometry" />
        </mxCell>
        <mxCell id="tV15sADyV607Aclw7fCX-110" value="" style="verticalLabelPosition=bottom;verticalAlign=top;html=1;shape=mxgraph.basic.patternFillRect;fillStyle=auto;step=5;fillStrokeWidth=0.2;fillStrokeColor=#dddddd;gradientDirection=north;strokeColor=#996185;shadow=0;sketch=0;fillColor=#e6d0de;gradientColor=#d5739d;" vertex="1" parent="1">
          <mxGeometry x="1140" y="3050" width="30" height="30" as="geometry" />
        </mxCell>
        <mxCell id="tV15sADyV607Aclw7fCX-134" value="&lt;p&gt;&lt;span style=&quot;font-family: &amp;quot;Times New Roman&amp;quot;; font-size: 27px;&quot;&gt;Pinyin embedding&lt;/span&gt;&lt;br&gt;&lt;/p&gt;" style="text;html=1;resizable=0;autosize=1;align=center;verticalAlign=middle;points=[];fillColor=none;strokeColor=none;rounded=0;shadow=0;dashed=1;sketch=0;fillStyle=auto;" vertex="1" parent="1">
          <mxGeometry x="385.99952380952385" y="3000" width="210" height="50" as="geometry" />
        </mxCell>
        <mxCell id="tV15sADyV607Aclw7fCX-135" value="&lt;p&gt;&lt;span style=&quot;font-family: &amp;quot;Times New Roman&amp;quot;; font-size: 27px;&quot;&gt;Char embedding&lt;/span&gt;&lt;br&gt;&lt;/p&gt;" style="text;html=1;resizable=0;autosize=1;align=center;verticalAlign=middle;points=[];fillColor=none;strokeColor=none;rounded=0;shadow=0;dashed=1;sketch=0;fillStyle=auto;" vertex="1" parent="1">
          <mxGeometry x="674.9995238095239" y="3000" width="190" height="50" as="geometry" />
        </mxCell>
        <mxCell id="tV15sADyV607Aclw7fCX-136" value="&lt;p&gt;&lt;span style=&quot;font-family: &amp;quot;Times New Roman&amp;quot;; font-size: 27px;&quot;&gt;Glyph embedding&lt;/span&gt;&lt;br&gt;&lt;/p&gt;" style="text;html=1;resizable=0;autosize=1;align=center;verticalAlign=middle;points=[];fillColor=none;strokeColor=none;rounded=0;shadow=0;dashed=1;sketch=0;fillStyle=auto;" vertex="1" parent="1">
          <mxGeometry x="943.9995238095239" y="3000" width="210" height="50" as="geometry" />
        </mxCell>
        <mxCell id="tV15sADyV607Aclw7fCX-137" value="" style="shape=flexArrow;endArrow=classic;html=1;rounded=0;fontFamily=Times New Roman;fontSize=27;entryX=0.5;entryY=1;entryDx=0;entryDy=0;entryPerimeter=0;exitX=0.511;exitY=-0.013;exitDx=0;exitDy=0;exitPerimeter=0;" edge="1" parent="1" source="tV15sADyV607Aclw7fCX-133" target="tV15sADyV607Aclw7fCX-43">
          <mxGeometry width="50" height="50" relative="1" as="geometry">
            <mxPoint x="760" y="2980" as="sourcePoint" />
            <mxPoint x="780" y="2960" as="targetPoint" />
          </mxGeometry>
        </mxCell>
        <mxCell id="tV15sADyV607Aclw7fCX-139" style="rounded=0;orthogonalLoop=1;jettySize=auto;html=1;exitX=0.5;exitY=0;exitDx=0;exitDy=0;exitPerimeter=0;entryX=0.5;entryY=1;entryDx=0;entryDy=0;entryPerimeter=0;fontFamily=Times New Roman;fontSize=27;fillColor=#dae8fc;strokeColor=#6c8ebf;dashed=1;endArrow=openThin;endFill=0;" edge="1" parent="1" source="tV15sADyV607Aclw7fCX-74" target="tV15sADyV607Aclw7fCX-85">
          <mxGeometry relative="1" as="geometry" />
        </mxCell>
        <mxCell id="tV15sADyV607Aclw7fCX-140" style="edgeStyle=none;rounded=0;orthogonalLoop=1;jettySize=auto;html=1;exitX=0.5;exitY=0;exitDx=0;exitDy=0;exitPerimeter=0;entryX=0.5;entryY=1;entryDx=0;entryDy=0;entryPerimeter=0;fontFamily=Times New Roman;fontSize=27;fillColor=#dae8fc;strokeColor=#6c8ebf;dashed=1;endArrow=openThin;endFill=0;" edge="1" parent="1" source="tV15sADyV607Aclw7fCX-76" target="tV15sADyV607Aclw7fCX-87">
          <mxGeometry relative="1" as="geometry" />
        </mxCell>
        <mxCell id="tV15sADyV607Aclw7fCX-141" style="edgeStyle=none;rounded=0;orthogonalLoop=1;jettySize=auto;html=1;exitX=0.5;exitY=0;exitDx=0;exitDy=0;exitPerimeter=0;entryX=0.5;entryY=1;entryDx=0;entryDy=0;entryPerimeter=0;fontFamily=Times New Roman;fontSize=27;fillColor=#dae8fc;strokeColor=#6c8ebf;dashed=1;endArrow=openThin;endFill=0;" edge="1" parent="1" source="tV15sADyV607Aclw7fCX-78" target="tV15sADyV607Aclw7fCX-89">
          <mxGeometry relative="1" as="geometry" />
        </mxCell>
        <mxCell id="tV15sADyV607Aclw7fCX-142" style="edgeStyle=none;rounded=0;orthogonalLoop=1;jettySize=auto;html=1;exitX=0.5;exitY=0;exitDx=0;exitDy=0;exitPerimeter=0;entryX=0.5;entryY=1;entryDx=0;entryDy=0;entryPerimeter=0;fontFamily=Times New Roman;fontSize=27;fillColor=#dae8fc;strokeColor=#6c8ebf;dashed=1;endArrow=openThin;endFill=0;" edge="1" parent="1" source="tV15sADyV607Aclw7fCX-80" target="tV15sADyV607Aclw7fCX-91">
          <mxGeometry relative="1" as="geometry" />
        </mxCell>
        <mxCell id="tV15sADyV607Aclw7fCX-143" style="edgeStyle=none;rounded=0;orthogonalLoop=1;jettySize=auto;html=1;exitX=0.5;exitY=0;exitDx=0;exitDy=0;exitPerimeter=0;entryX=0.5;entryY=1;entryDx=0;entryDy=0;entryPerimeter=0;fontFamily=Times New Roman;fontSize=27;fillColor=#dae8fc;strokeColor=#6c8ebf;dashed=1;endArrow=openThin;endFill=0;" edge="1" parent="1" source="tV15sADyV607Aclw7fCX-75" target="tV15sADyV607Aclw7fCX-86">
          <mxGeometry relative="1" as="geometry" />
        </mxCell>
        <mxCell id="tV15sADyV607Aclw7fCX-144" style="edgeStyle=none;rounded=0;orthogonalLoop=1;jettySize=auto;html=1;exitX=0.5;exitY=0;exitDx=0;exitDy=0;exitPerimeter=0;entryX=0.5;entryY=1;entryDx=0;entryDy=0;entryPerimeter=0;fontFamily=Times New Roman;fontSize=27;fillColor=#dae8fc;strokeColor=#6c8ebf;dashed=1;endArrow=openThin;endFill=0;" edge="1" parent="1" source="tV15sADyV607Aclw7fCX-77" target="tV15sADyV607Aclw7fCX-88">
          <mxGeometry relative="1" as="geometry" />
        </mxCell>
        <mxCell id="tV15sADyV607Aclw7fCX-145" style="edgeStyle=none;rounded=0;orthogonalLoop=1;jettySize=auto;html=1;exitX=0.5;exitY=0;exitDx=0;exitDy=0;exitPerimeter=0;entryX=0.5;entryY=1;entryDx=0;entryDy=0;entryPerimeter=0;fontFamily=Times New Roman;fontSize=27;fillColor=#dae8fc;strokeColor=#6c8ebf;dashed=1;endArrow=openThin;endFill=0;" edge="1" parent="1" source="tV15sADyV607Aclw7fCX-79" target="tV15sADyV607Aclw7fCX-90">
          <mxGeometry relative="1" as="geometry" />
        </mxCell>
        <mxCell id="tV15sADyV607Aclw7fCX-146" style="edgeStyle=none;rounded=0;orthogonalLoop=1;jettySize=auto;html=1;exitX=0.5;exitY=0;exitDx=0;exitDy=0;exitPerimeter=0;entryX=0.5;entryY=1;entryDx=0;entryDy=0;entryPerimeter=0;fontFamily=Times New Roman;fontSize=27;fillColor=#dae8fc;strokeColor=#6c8ebf;dashed=1;endArrow=openThin;endFill=0;" edge="1" parent="1" source="tV15sADyV607Aclw7fCX-81" target="tV15sADyV607Aclw7fCX-92">
          <mxGeometry relative="1" as="geometry" />
        </mxCell>
        <mxCell id="tV15sADyV607Aclw7fCX-147" style="edgeStyle=none;rounded=0;orthogonalLoop=1;jettySize=auto;html=1;exitX=0.5;exitY=0;exitDx=0;exitDy=0;exitPerimeter=0;entryX=0.5;entryY=1;entryDx=0;entryDy=0;entryPerimeter=0;dashed=1;fontFamily=Times New Roman;fontSize=27;endArrow=openThin;endFill=0;fillColor=#d5e8d4;strokeColor=#82b366;" edge="1" parent="1" source="tV15sADyV607Aclw7fCX-74" target="tV15sADyV607Aclw7fCX-94">
          <mxGeometry relative="1" as="geometry" />
        </mxCell>
        <mxCell id="tV15sADyV607Aclw7fCX-148" style="edgeStyle=none;rounded=0;orthogonalLoop=1;jettySize=auto;html=1;exitX=0.5;exitY=0;exitDx=0;exitDy=0;exitPerimeter=0;entryX=0.5;entryY=1;entryDx=0;entryDy=0;entryPerimeter=0;dashed=1;fontFamily=Times New Roman;fontSize=27;endArrow=openThin;endFill=0;fillColor=#d5e8d4;strokeColor=#82b366;" edge="1" parent="1" source="tV15sADyV607Aclw7fCX-76" target="tV15sADyV607Aclw7fCX-96">
          <mxGeometry relative="1" as="geometry" />
        </mxCell>
        <mxCell id="tV15sADyV607Aclw7fCX-149" style="edgeStyle=none;rounded=0;orthogonalLoop=1;jettySize=auto;html=1;exitX=0.5;exitY=0;exitDx=0;exitDy=0;exitPerimeter=0;entryX=0.5;entryY=1;entryDx=0;entryDy=0;entryPerimeter=0;dashed=1;fontFamily=Times New Roman;fontSize=27;endArrow=openThin;endFill=0;fillColor=#d5e8d4;strokeColor=#82b366;" edge="1" parent="1" source="tV15sADyV607Aclw7fCX-78" target="tV15sADyV607Aclw7fCX-98">
          <mxGeometry relative="1" as="geometry" />
        </mxCell>
        <mxCell id="tV15sADyV607Aclw7fCX-151" style="edgeStyle=none;rounded=0;orthogonalLoop=1;jettySize=auto;html=1;exitX=0.5;exitY=0;exitDx=0;exitDy=0;exitPerimeter=0;entryX=0.5;entryY=1;entryDx=0;entryDy=0;entryPerimeter=0;dashed=1;fontFamily=Times New Roman;fontSize=27;endArrow=openThin;endFill=0;fillColor=#d5e8d4;strokeColor=#82b366;" edge="1" parent="1" source="tV15sADyV607Aclw7fCX-80" target="tV15sADyV607Aclw7fCX-100">
          <mxGeometry relative="1" as="geometry" />
        </mxCell>
        <mxCell id="tV15sADyV607Aclw7fCX-152" style="edgeStyle=none;rounded=0;orthogonalLoop=1;jettySize=auto;html=1;exitX=0.5;exitY=0;exitDx=0;exitDy=0;exitPerimeter=0;entryX=0.5;entryY=1;entryDx=0;entryDy=0;entryPerimeter=0;dashed=1;fontFamily=Times New Roman;fontSize=27;endArrow=openThin;endFill=0;fillColor=#d5e8d4;strokeColor=#82b366;" edge="1" parent="1" source="tV15sADyV607Aclw7fCX-75" target="tV15sADyV607Aclw7fCX-95">
          <mxGeometry relative="1" as="geometry" />
        </mxCell>
        <mxCell id="tV15sADyV607Aclw7fCX-153" style="edgeStyle=none;rounded=0;orthogonalLoop=1;jettySize=auto;html=1;exitX=0.5;exitY=0;exitDx=0;exitDy=0;exitPerimeter=0;entryX=0.5;entryY=1;entryDx=0;entryDy=0;entryPerimeter=0;dashed=1;fontFamily=Times New Roman;fontSize=27;endArrow=openThin;endFill=0;fillColor=#d5e8d4;strokeColor=#82b366;" edge="1" parent="1" source="tV15sADyV607Aclw7fCX-77" target="tV15sADyV607Aclw7fCX-97">
          <mxGeometry relative="1" as="geometry" />
        </mxCell>
        <mxCell id="tV15sADyV607Aclw7fCX-154" style="edgeStyle=none;rounded=0;orthogonalLoop=1;jettySize=auto;html=1;exitX=0.5;exitY=0;exitDx=0;exitDy=0;exitPerimeter=0;entryX=0.5;entryY=1;entryDx=0;entryDy=0;entryPerimeter=0;dashed=1;fontFamily=Times New Roman;fontSize=27;endArrow=openThin;endFill=0;fillColor=#d5e8d4;strokeColor=#82b366;" edge="1" parent="1" source="tV15sADyV607Aclw7fCX-79" target="tV15sADyV607Aclw7fCX-99">
          <mxGeometry relative="1" as="geometry" />
        </mxCell>
        <mxCell id="tV15sADyV607Aclw7fCX-155" style="edgeStyle=none;rounded=0;orthogonalLoop=1;jettySize=auto;html=1;exitX=0.5;exitY=0;exitDx=0;exitDy=0;exitPerimeter=0;entryX=0.5;entryY=1;entryDx=0;entryDy=0;entryPerimeter=0;dashed=1;fontFamily=Times New Roman;fontSize=27;endArrow=openThin;endFill=0;fillColor=#d5e8d4;strokeColor=#82b366;" edge="1" parent="1" source="tV15sADyV607Aclw7fCX-81" target="tV15sADyV607Aclw7fCX-101">
          <mxGeometry relative="1" as="geometry" />
        </mxCell>
        <mxCell id="tV15sADyV607Aclw7fCX-156" style="edgeStyle=none;rounded=0;orthogonalLoop=1;jettySize=auto;html=1;exitX=0.5;exitY=0;exitDx=0;exitDy=0;exitPerimeter=0;entryX=0.5;entryY=1;entryDx=0;entryDy=0;entryPerimeter=0;dashed=1;fontFamily=Times New Roman;fontSize=27;endArrow=openThin;endFill=0;fillColor=#f8cecc;strokeColor=#b85450;" edge="1" parent="1" source="tV15sADyV607Aclw7fCX-74" target="tV15sADyV607Aclw7fCX-103">
          <mxGeometry relative="1" as="geometry" />
        </mxCell>
        <mxCell id="tV15sADyV607Aclw7fCX-157" style="edgeStyle=none;rounded=0;orthogonalLoop=1;jettySize=auto;html=1;exitX=0.5;exitY=0;exitDx=0;exitDy=0;exitPerimeter=0;entryX=0.5;entryY=1;entryDx=0;entryDy=0;entryPerimeter=0;dashed=1;fontFamily=Times New Roman;fontSize=27;endArrow=openThin;endFill=0;fillColor=#f8cecc;strokeColor=#b85450;" edge="1" parent="1" source="tV15sADyV607Aclw7fCX-76" target="tV15sADyV607Aclw7fCX-105">
          <mxGeometry relative="1" as="geometry" />
        </mxCell>
        <mxCell id="tV15sADyV607Aclw7fCX-158" style="edgeStyle=none;rounded=0;orthogonalLoop=1;jettySize=auto;html=1;exitX=0.5;exitY=0;exitDx=0;exitDy=0;exitPerimeter=0;entryX=0.5;entryY=1;entryDx=0;entryDy=0;entryPerimeter=0;dashed=1;fontFamily=Times New Roman;fontSize=27;endArrow=openThin;endFill=0;fillColor=#f8cecc;strokeColor=#b85450;" edge="1" parent="1" source="tV15sADyV607Aclw7fCX-78" target="tV15sADyV607Aclw7fCX-107">
          <mxGeometry relative="1" as="geometry" />
        </mxCell>
        <mxCell id="tV15sADyV607Aclw7fCX-159" style="edgeStyle=none;rounded=0;orthogonalLoop=1;jettySize=auto;html=1;exitX=0.5;exitY=0;exitDx=0;exitDy=0;exitPerimeter=0;entryX=0.5;entryY=1;entryDx=0;entryDy=0;entryPerimeter=0;dashed=1;fontFamily=Times New Roman;fontSize=27;endArrow=openThin;endFill=0;fillColor=#f8cecc;strokeColor=#b85450;" edge="1" parent="1" source="tV15sADyV607Aclw7fCX-80" target="tV15sADyV607Aclw7fCX-109">
          <mxGeometry relative="1" as="geometry" />
        </mxCell>
        <mxCell id="tV15sADyV607Aclw7fCX-160" style="edgeStyle=none;rounded=0;orthogonalLoop=1;jettySize=auto;html=1;exitX=0.5;exitY=0;exitDx=0;exitDy=0;exitPerimeter=0;entryX=0.5;entryY=1;entryDx=0;entryDy=0;entryPerimeter=0;dashed=1;fontFamily=Times New Roman;fontSize=27;endArrow=openThin;endFill=0;fillColor=#f8cecc;strokeColor=#b85450;" edge="1" parent="1" source="tV15sADyV607Aclw7fCX-75" target="tV15sADyV607Aclw7fCX-104">
          <mxGeometry relative="1" as="geometry" />
        </mxCell>
        <mxCell id="tV15sADyV607Aclw7fCX-161" style="edgeStyle=none;rounded=0;orthogonalLoop=1;jettySize=auto;html=1;exitX=0.5;exitY=0;exitDx=0;exitDy=0;exitPerimeter=0;entryX=0.5;entryY=1;entryDx=0;entryDy=0;entryPerimeter=0;dashed=1;fontFamily=Times New Roman;fontSize=27;endArrow=openThin;endFill=0;fillColor=#f8cecc;strokeColor=#b85450;" edge="1" parent="1" source="tV15sADyV607Aclw7fCX-77" target="tV15sADyV607Aclw7fCX-106">
          <mxGeometry relative="1" as="geometry" />
        </mxCell>
        <mxCell id="tV15sADyV607Aclw7fCX-162" style="edgeStyle=none;rounded=0;orthogonalLoop=1;jettySize=auto;html=1;exitX=0.5;exitY=0;exitDx=0;exitDy=0;exitPerimeter=0;entryX=0.5;entryY=1;entryDx=0;entryDy=0;entryPerimeter=0;dashed=1;fontFamily=Times New Roman;fontSize=27;endArrow=openThin;endFill=0;fillColor=#f8cecc;strokeColor=#b85450;" edge="1" parent="1" source="tV15sADyV607Aclw7fCX-79" target="tV15sADyV607Aclw7fCX-108">
          <mxGeometry relative="1" as="geometry" />
        </mxCell>
        <mxCell id="tV15sADyV607Aclw7fCX-163" style="edgeStyle=none;rounded=0;orthogonalLoop=1;jettySize=auto;html=1;exitX=0.5;exitY=0;exitDx=0;exitDy=0;exitPerimeter=0;entryX=0.5;entryY=1;entryDx=0;entryDy=0;entryPerimeter=0;dashed=1;fontFamily=Times New Roman;fontSize=27;endArrow=openThin;endFill=0;fillColor=#f8cecc;strokeColor=#b85450;" edge="1" parent="1" source="tV15sADyV607Aclw7fCX-81" target="tV15sADyV607Aclw7fCX-110">
          <mxGeometry relative="1" as="geometry" />
        </mxCell>
        <mxCell id="tV15sADyV607Aclw7fCX-165" value="" style="endArrow=classic;html=1;rounded=0;fontFamily=Times New Roman;fontSize=27;entryX=0.5;entryY=1;entryDx=0;entryDy=0;entryPerimeter=0;exitX=0.213;exitY=-0.016;exitDx=0;exitDy=0;exitPerimeter=0;" edge="1" parent="1" source="tV15sADyV607Aclw7fCX-43" target="tV15sADyV607Aclw7fCX-117">
          <mxGeometry width="50" height="50" relative="1" as="geometry">
            <mxPoint x="640" y="2880" as="sourcePoint" />
            <mxPoint x="690" y="2830" as="targetPoint" />
          </mxGeometry>
        </mxCell>
        <mxCell id="tV15sADyV607Aclw7fCX-166" value="" style="endArrow=classic;html=1;rounded=0;fontFamily=Times New Roman;fontSize=27;entryX=0.5;entryY=1;entryDx=0;entryDy=0;entryPerimeter=0;exitX=0.288;exitY=-0.013;exitDx=0;exitDy=0;exitPerimeter=0;" edge="1" parent="1" source="tV15sADyV607Aclw7fCX-43" target="tV15sADyV607Aclw7fCX-119">
          <mxGeometry width="50" height="50" relative="1" as="geometry">
            <mxPoint x="695" y="2880" as="sourcePoint" />
            <mxPoint x="694.66" y="2830.9599999999996" as="targetPoint" />
          </mxGeometry>
        </mxCell>
        <mxCell id="tV15sADyV607Aclw7fCX-167" value="" style="endArrow=classic;html=1;rounded=0;fontFamily=Times New Roman;fontSize=27;entryX=0.5;entryY=1;entryDx=0;entryDy=0;entryPerimeter=0;exitX=0.364;exitY=-0.019;exitDx=0;exitDy=0;exitPerimeter=0;" edge="1" parent="1" source="tV15sADyV607Aclw7fCX-43" target="tV15sADyV607Aclw7fCX-121">
          <mxGeometry width="50" height="50" relative="1" as="geometry">
            <mxPoint x="710" y="2880" as="sourcePoint" />
            <mxPoint x="760" y="2830" as="targetPoint" />
          </mxGeometry>
        </mxCell>
        <mxCell id="tV15sADyV607Aclw7fCX-168" value="" style="endArrow=classic;html=1;rounded=0;fontFamily=Times New Roman;fontSize=27;entryX=0.5;entryY=1;entryDx=0;entryDy=0;entryPerimeter=0;exitX=0.438;exitY=-0.01;exitDx=0;exitDy=0;exitPerimeter=0;" edge="1" parent="1" source="tV15sADyV607Aclw7fCX-43" target="tV15sADyV607Aclw7fCX-123">
          <mxGeometry width="50" height="50" relative="1" as="geometry">
            <mxPoint x="750" y="2880" as="sourcePoint" />
            <mxPoint x="800" y="2830" as="targetPoint" />
          </mxGeometry>
        </mxCell>
        <mxCell id="tV15sADyV607Aclw7fCX-169" value="" style="endArrow=classic;html=1;rounded=0;fontFamily=Times New Roman;fontSize=27;entryX=0.5;entryY=1;entryDx=0;entryDy=0;entryPerimeter=0;exitX=0.513;exitY=0.003;exitDx=0;exitDy=0;exitPerimeter=0;" edge="1" parent="1" source="tV15sADyV607Aclw7fCX-43" target="tV15sADyV607Aclw7fCX-118">
          <mxGeometry width="50" height="50" relative="1" as="geometry">
            <mxPoint x="770" y="2880" as="sourcePoint" />
            <mxPoint x="820" y="2830" as="targetPoint" />
          </mxGeometry>
        </mxCell>
        <mxCell id="tV15sADyV607Aclw7fCX-170" value="" style="endArrow=classic;html=1;rounded=0;fontFamily=Times New Roman;fontSize=27;entryX=0.5;entryY=1;entryDx=0;entryDy=0;entryPerimeter=0;exitX=0.588;exitY=0.003;exitDx=0;exitDy=0;exitPerimeter=0;" edge="1" parent="1" source="tV15sADyV607Aclw7fCX-43" target="tV15sADyV607Aclw7fCX-120">
          <mxGeometry width="50" height="50" relative="1" as="geometry">
            <mxPoint x="790" y="2880" as="sourcePoint" />
            <mxPoint x="840" y="2830" as="targetPoint" />
          </mxGeometry>
        </mxCell>
        <mxCell id="tV15sADyV607Aclw7fCX-171" value="" style="endArrow=classic;html=1;rounded=0;fontFamily=Times New Roman;fontSize=27;entryX=0.5;entryY=1;entryDx=0;entryDy=0;entryPerimeter=0;exitX=0.663;exitY=0.006;exitDx=0;exitDy=0;exitPerimeter=0;" edge="1" parent="1" source="tV15sADyV607Aclw7fCX-43" target="tV15sADyV607Aclw7fCX-122">
          <mxGeometry width="50" height="50" relative="1" as="geometry">
            <mxPoint x="830" y="2880" as="sourcePoint" />
            <mxPoint x="880" y="2830" as="targetPoint" />
          </mxGeometry>
        </mxCell>
        <mxCell id="tV15sADyV607Aclw7fCX-172" value="" style="endArrow=classic;html=1;rounded=0;fontFamily=Times New Roman;fontSize=27;entryX=0.5;entryY=1;entryDx=0;entryDy=0;entryPerimeter=0;exitX=0.737;exitY=-0.003;exitDx=0;exitDy=0;exitPerimeter=0;" edge="1" parent="1" source="tV15sADyV607Aclw7fCX-43" target="tV15sADyV607Aclw7fCX-124">
          <mxGeometry width="50" height="50" relative="1" as="geometry">
            <mxPoint x="840" y="2880" as="sourcePoint" />
            <mxPoint x="890" y="2830" as="targetPoint" />
          </mxGeometry>
        </mxCell>
        <mxCell id="tV15sADyV607Aclw7fCX-173" value="Char fusion embedding" style="text;html=1;resizable=0;autosize=1;align=center;verticalAlign=middle;points=[];fillColor=none;strokeColor=none;rounded=0;shadow=0;sketch=0;fillStyle=auto;fontFamily=Times New Roman;fontSize=27;" vertex="1" parent="1">
          <mxGeometry x="914" y="2795" width="270" height="40" as="geometry" />
        </mxCell>
        <mxCell id="tV15sADyV607Aclw7fCX-175" value="Chinese character information" style="text;html=1;resizable=0;autosize=1;align=center;verticalAlign=middle;points=[];fillColor=none;strokeColor=none;rounded=0;shadow=0;dashed=1;sketch=0;fillStyle=auto;fontFamily=Times New Roman;fontSize=27;" vertex="1" parent="1">
          <mxGeometry x="321" y="3211" width="340" height="40" as="geometry" />
        </mxCell>
        <mxCell id="tV15sADyV607Aclw7fCX-185" style="edgeStyle=orthogonalEdgeStyle;rounded=0;orthogonalLoop=1;jettySize=auto;html=1;exitX=0;exitY=0.5;exitDx=0;exitDy=0;exitPerimeter=0;entryX=0.5;entryY=1;entryDx=0;entryDy=0;entryPerimeter=0;fontFamily=Times New Roman;fontSize=27;endArrow=classic;endFill=1;strokeColor=#4A4A4A;strokeWidth=1;" edge="1" parent="1" source="tV15sADyV607Aclw7fCX-117" target="tV15sADyV607Aclw7fCX-184">
          <mxGeometry relative="1" as="geometry" />
        </mxCell>
      </root>
    </mxGraphModel>
  </diagram>
</mxfile>
